<svg version="1.0" xmlns="http://www.w3.org/2000/svg"
 width="702.000000pt" height="276.000000pt" viewBox="0 0 702.000000 276.000000"
 preserveAspectRatio="xMidYMid meet">

<g transform="translate(0.000000,276.000000) scale(0.100000,-0.100000)"
fill="#00cc00" stroke="none">
<path d="M720 2188 c-38 -20 -50 -34 -82 -96 -57 -115 -82 -219 -83 -342 0
-115 12 -150 60 -172 76 -34 166 67 224 252 31 101 31 105 -6 108 -25 2 -33
-1 -33 -13 0 -33 -71 -232 -95 -267 -32 -47 -71 -53 -81 -12 -11 43 4 194 26
274 24 82 86 209 107 217 49 19 144 -180 191 -398 35 -160 45 -297 39 -534 -3
-121 -8 -227 -12 -235 -3 -8 -23 -23 -44 -33 -208 -96 -305 -427 -165 -559 43
-40 100 -60 189 -65 260 -16 525 176 685 494 153 308 136 596 -39 665 -35 13
-139 13 -175 -1 -16 -6 -30 -10 -32 -8 -2 1 8 34 22 72 39 106 81 279 94 386
24 193 -27 284 -141 250 -83 -25 -155 -142 -231 -377 -41 -127 -58 -160 -58
-112 0 37 -51 219 -87 308 -43 109 -92 176 -146 201 -54 24 -73 24 -127 -3z
m672 -245 c-14 -134 -56 -304 -112 -448 -56 -147 -56 -149 1 -153 38 -2 56 3
107 33 108 65 170 57 211 -28 30 -62 35 -138 17 -244 -35 -204 -130 -392 -276
-547 -182 -193 -429 -245 -501 -105 -30 60 -24 179 13 261 26 56 84 138 98
138 4 0 5 -22 2 -50 -5 -58 9 -70 55 -47 44 23 62 49 73 107 5 29 10 54 10 55
0 2 20 8 45 14 58 15 60 38 4 47 l-42 7 7 82 c22 285 131 725 228 919 39 78
48 90 61 77 8 -8 7 -45 -1 -118z"/>
<path d="M4214 2130 c-150 -31 -311 -197 -395 -405 -133 -332 -106 -695 63
-851 143 -132 365 -133 512 -3 l38 33 -6 -64 c-13 -122 -8 -114 -86 -127 -142
-22 -295 -124 -345 -228 -27 -57 -31 -141 -8 -185 43 -83 185 -111 289 -57 97
49 180 176 225 342 12 44 23 82 25 84 2 2 35 -5 73 -15 39 -10 74 -14 78 -10
11 12 -31 38 -91 57 -44 14 -51 20 -49 40 15 190 15 303 -2 364 -21 79 -64
141 -110 161 -75 31 -255 9 -255 -31 0 -29 29 -39 83 -28 63 14 91 0 114 -55
53 -128 -80 -312 -227 -314 -62 0 -109 23 -160 78 -93 101 -126 225 -117 443
7 191 54 355 147 512 141 238 340 268 431 64 19 -41 23 -68 23 -150 0 -55 -6
-119 -13 -143 -9 -34 -9 -47 0 -58 15 -18 54 -18 73 1 24 24 38 121 34 229 -3
87 -8 110 -35 167 -32 69 -70 106 -134 133 -47 20 -124 27 -175 16z m186
-1465 c0 -40 -64 -207 -98 -256 -72 -104 -174 -147 -236 -98 -22 17 -26 28
-26 70 0 65 25 112 91 175 59 55 126 91 204 110 66 16 65 16 65 -1z"/>
<path d="M3260 2064 c-58 -50 -130 -225 -169 -414 -30 -141 -42 -295 -40 -475
2 -149 0 -165 -24 -234 -34 -96 -70 -151 -101 -151 -49 0 -67 113 -55 350 4
85 8 170 8 188 1 21 6 32 16 32 25 0 17 30 -11 40 -37 14 -127 12 -149 -3 -19
-14 -13 -37 9 -37 10 0 12 -57 12 -257 -1 -249 0 -259 22 -300 39 -75 123 -96
182 -47 34 30 55 63 87 144 13 33 23 49 26 40 3 -8 13 -38 22 -67 33 -106 88
-158 167 -158 43 0 53 4 78 31 36 41 65 119 101 274 32 141 35 170 15 170 -9
0 -21 -31 -35 -92 -51 -224 -105 -337 -148 -312 -59 36 -93 170 -100 395 l-6
165 41 60 c118 175 215 467 196 593 -13 86 -82 117 -144 65z m97 -123 c-3 -59
-15 -115 -37 -181 -40 -117 -120 -290 -127 -272 -13 34 60 375 98 461 52 119
74 116 66 -8z"/>
<path d="M6330 1603 c-47 -48 -129 -253 -174 -433 l-31 -125 -3 172 c-2 157
-4 172 -21 178 -28 9 -68 -11 -74 -37 -5 -20 -15 -91 -32 -226 -10 -86 -119
-253 -187 -288 -77 -40 -168 38 -168 142 0 17 8 22 40 27 21 3 52 15 67 27 73
57 128 194 128 318 0 70 -1 75 -33 103 -26 23 -42 29 -79 29 -123 0 -215 -132
-242 -343 -14 -116 -94 -252 -174 -297 -70 -40 -142 -2 -167 88 -17 62 -14 69
30 75 58 8 104 47 140 120 76 155 80 306 9 342 -36 19 -102 19 -137 1 -101
-53 -172 -222 -172 -409 0 -204 73 -307 218 -307 78 0 155 63 214 175 23 42
38 62 38 49 0 -41 31 -124 57 -155 34 -40 96 -69 148 -69 90 0 182 77 240 202
l32 70 6 -75 c6 -74 29 -160 49 -184 12 -15 64 -17 72 -4 3 5 33 114 65 243
76 298 142 488 171 488 15 0 12 -34 -15 -223 -50 -350 -55 -534 -19 -641 20
-59 59 -86 125 -86 68 0 94 36 41 56 -86 33 -94 222 -26 654 39 250 32 321
-35 358 -21 12 -44 22 -51 22 -7 0 -29 -17 -50 -37z m-999 -204 c33 -109 -62
-349 -138 -349 l-26 0 6 93 c7 112 36 209 77 260 42 50 66 49 81 -4z m460 25
c21 -26 15 -148 -12 -219 -39 -104 -79 -155 -123 -155 -13 0 -16 13 -16 68 0
123 36 243 90 300 25 26 43 28 61 6z"/>
<path d="M2783 1549 c-57 -29 -23 -79 54 -79 24 0 53 5 64 10 23 13 25 43 4
60 -20 17 -95 22 -122 9z"/>
<path d="M2452 1467 c-52 -19 -100 -64 -129 -120 -27 -54 -30 -77 -22 -232 3
-55 -1 -68 -46 -159 -28 -55 -54 -100 -60 -100 -19 -2 -25 81 -22 304 1 124
-2 231 -6 238 -5 6 -23 12 -42 12 -19 0 -36 4 -40 10 -12 19 -78 30 -119 19
-74 -20 -120 -94 -163 -259 -21 -81 -24 -113 -21 -220 3 -110 6 -130 26 -162
15 -24 35 -41 58 -48 66 -22 116 8 159 97 28 58 28 58 35 28 15 -70 53 -105
111 -105 21 0 47 8 62 20 27 21 75 134 97 227 l12 52 25 -30 c14 -17 59 -52
99 -80 104 -70 125 -108 84 -149 -44 -44 -110 -12 -125 60 -9 42 -19 50 -66
50 -45 0 -62 -18 -53 -57 20 -87 85 -133 185 -133 122 0 194 44 194 120 0 51
-25 84 -110 143 -38 26 -80 57 -93 70 -72 67 -90 193 -39 280 35 59 66 76 104
56 61 -32 83 -117 61 -228 -8 -39 -12 -73 -10 -76 3 -3 20 -5 37 -5 29 0 35 5
53 48 31 72 36 131 18 195 -32 110 -148 172 -254 134z m-407 -192 c-2 -11 -9
-47 -15 -80 -18 -99 -59 -241 -87 -307 -34 -77 -41 -62 -42 85 -1 129 18 223
66 327 l34 75 24 -40 c13 -21 22 -48 20 -60z"/>
<path d="M4674 1453 c-33 -23 -39 -86 -39 -406 0 -304 1 -319 19 -333 11 -8
37 -14 58 -14 46 0 45 -4 52 200 3 110 10 177 24 231 37 137 90 224 135 217
19 -3 22 -10 25 -50 4 -55 -12 -121 -34 -143 -20 -19 -36 -10 -32 18 2 18 -2
22 -22 22 -34 0 -40 -45 -11 -74 26 -26 57 -26 99 -1 85 52 109 259 37 306
-58 38 -136 -16 -187 -127 -13 -30 -30 -65 -36 -79 -10 -20 -12 -1 -10 105 l3
130 -35 3 c-19 1 -40 -1 -46 -5z"/>
</g>
</svg>
